<svg viewBox="0 0 24 24" xmlns="http://www.w3.org/2000/svg">
    <g fill="none" stroke="#685b5e" stroke-linecap="round" stroke-linejoin="round">
      <path d="M2.5 14a4.4 4.4 0 0 1-2-2c-1-2.5 3.4-4.5 9.7-4.5s12.2 2 13.2 4.5c.4 1.2-.3 2.3-2 3" />
      <path d="M9.5 20.8a5 5 0 0 1-3.2 1c-2.6-.4-2.2-5 1-10.5s7.7-9.5 10.4-9c1.4 0 2 1.6 1.7 3.7" />
      <path d="M16.2 10.5c2.2 4.8 3 9.5 1.5 11.3-1.7 2-5.6-.6-8.7-6S4.7 4.3 6.3 2.2c1-1 2.5-.8 4.2.5" />
      <circle cx="12" cy="12" r="1.5"/>
    </g>
</svg>